<?xml version="1.0" standalone="no"?>
<!DOCTYPE svg PUBLIC "-//W3C//DTD SVG 20010904//EN"
 "http://www.w3.org/TR/2001/REC-SVG-20010904/DTD/svg10.dtd">
<svg version="1.0" xmlns="http://www.w3.org/2000/svg"
 width="930.000000pt" height="1079.000000pt" viewBox="0 0 930.000000 1079.000000"
 preserveAspectRatio="xMidYMid meet">

<g transform="translate(0.000000,1079.000000) scale(0.100000,-0.100000)"
fill="#000000" stroke="none">
<path d="M34 10756 l-34 -34 0 -3826 0 -3826 4650 0 4650 0 0 3826 0 3826 -34
34 -34 34 -4582 0 -4582 0 -34 -34z m2823 -886 c438 -21 739 -89 1028 -229
158 -77 273 -161 394 -286 266 -276 427 -668 487 -1185 15 -124 18 -290 21
-1164 6 -1252 -3 -1460 -73 -1776 -121 -542 -390 -928 -792 -1134 -290 -148
-598 -222 -1017 -246 -99 -5 -521 -10 -937 -10 l-758 0 0 3020 0 3020 723 0
c397 0 813 -5 924 -10z m5493 -3010 l0 -3020 -1385 0 -1385 0 0 360 0 360 825
0 825 0 0 1035 0 1035 -620 0 -620 0 0 360 0 360 620 0 620 0 0 900 0 900
-800 0 -800 0 0 365 0 365 1360 0 1360 0 0 -3020z"/>
<path d="M2330 6845 l0 -2365 178 0 c583 0 819 95 966 387 66 132 101 290 128
578 19 202 19 2598 0 2800 -27 285 -62 446 -126 573 -150 297 -382 392 -968
392 l-178 0 0 -2365z"/>
<path d="M0 1346 c0 -791 4 -1264 10 -1280 5 -14 24 -35 42 -46 33 -20 53 -20
4598 -20 4545 0 4565 0 4598 20 18 11 37 32 42 46 6 16 10 489 10 1280 l0
1254 -4650 0 -4650 0 0 -1254z m1415 439 c82 -17 214 -81 269 -130 l39 -35
-44 -38 -43 -39 -45 35 c-72 55 -158 91 -250 104 -257 36 -510 -93 -593 -302
-18 -44 -22 -75 -22 -160 0 -125 19 -184 88 -271 167 -212 535 -262 766 -103
27 19 53 34 58 34 4 0 25 -17 46 -39 l37 -38 -48 -35 c-111 -82 -223 -118
-384 -125 -354 -17 -632 169 -694 465 -18 85 -18 139 0 224 48 227 232 397
489 453 82 18 245 18 331 0z m5583 -1 c87 -17 219 -78 272 -125 l35 -30 -44
-40 -43 -39 -37 29 c-207 162 -573 140 -760 -48 -268 -269 -108 -695 289 -767
137 -25 273 -10 393 43 l57 26 0 193 0 194 70 0 70 0 0 -214 0 -215 -32 -24
c-51 -38 -130 -75 -215 -99 -65 -19 -102 -23 -228 -23 -129 0 -160 3 -225 23
-235 74 -391 232 -435 439 -39 185 14 362 150 498 93 93 215 157 356 184 74
15 244 12 327 -5z m-4858 -249 l0 -255 400 0 400 0 0 255 0 255 65 0 65 0 0
-570 0 -570 -65 0 -65 0 0 265 0 265 -400 0 -400 0 0 -265 0 -265 -65 0 -65 0
0 570 0 570 65 0 65 0 0 -255z m2148 -305 c156 -305 286 -561 289 -567 4 -10
-14 -13 -69 -13 l-74 0 -74 150 -74 150 -353 0 -352 0 -78 -150 -78 -150 -73
0 -74 0 60 113 c32 61 164 318 293 570 l233 458 70 -3 70 -3 284 -555z m1022
100 l405 -458 3 459 2 459 65 0 65 0 0 -570 0 -570 -57 1 -58 0 -405 457 -405
457 -3 -457 -2 -458 -65 0 -65 0 0 570 0 570 58 -1 57 0 405 -459z m3240 410
l0 -50 -370 0 -370 0 0 -205 0 -205 330 0 330 0 0 -50 0 -50 -330 0 -330 0 0
-215 0 -215 385 0 385 0 0 -50 0 -50 -450 0 -450 0 0 570 0 570 435 0 435 0 0
-50z"/>
<path d="M3781 1352 l-151 -302 300 0 c165 0 300 3 299 8 0 4 -67 140 -148
302 l-149 295 -151 -303z"/>
</g>
</svg>
