<?xml version="1.0" standalone="no"?>
<!DOCTYPE svg PUBLIC "-//W3C//DTD SVG 20010904//EN"
 "http://www.w3.org/TR/2001/REC-SVG-20010904/DTD/svg10.dtd">
<svg version="1.0" xmlns="http://www.w3.org/2000/svg"
 width="932.000000pt" height="1080.000000pt" viewBox="0 0 932.000000 1080.000000"
 preserveAspectRatio="xMidYMid meet">

<g transform="translate(0.000000,1080.000000) scale(0.100000,-0.100000)"
fill="#000000" stroke="none">
<path d="M1220 6859 l0 -3021 883 5 c918 5 975 8 1213 52 626 116 1019 392
1247 874 88 187 156 421 191 658 34 225 37 384 33 1533 -4 1231 -3 1202 -62
1495 -41 201 -129 446 -220 605 -96 170 -245 340 -393 449 -171 125 -468 249
-722 300 -301 60 -507 70 -1452 71 l-718 0 0 -3021z m1688 2331 c245 -37 395
-113 499 -253 122 -165 178 -379 203 -782 13 -210 13 -2410 0 -2620 -28 -446
-99 -683 -249 -835 -157 -159 -331 -207 -773 -217 l-258 -6 0 2368 0 2368 253
-6 c138 -3 285 -11 325 -17z"/>
<path d="M5632 9518 l3 -363 803 -3 802 -2 0 -900 0 -900 -620 0 -620 0 0
-360 0 -360 620 0 620 0 0 -1035 0 -1035 -825 0 -825 0 0 -360 0 -360 1385 0
1385 0 0 3020 0 3020 -1365 0 -1365 0 2 -362z"/>
<path d="M0 2835 l0 -235 4655 0 4655 0 0 235 0 235 -4655 0 -4655 0 0 -235z"/>
<path d="M1084 1785 c-257 -56 -441 -226 -489 -453 -18 -85 -18 -139 0 -224
48 -229 232 -399 490 -453 92 -19 236 -19 333 1 84 17 217 77 271 122 l34 29
-39 36 c-21 20 -43 37 -47 37 -5 0 -23 -11 -40 -24 -94 -70 -200 -101 -347
-100 -167 0 -296 50 -400 154 -173 174 -173 446 0 620 190 190 542 212 745 46
l40 -33 45 39 45 39 -40 35 c-57 49 -188 112 -270 129 -86 18 -249 18 -331 0z"/>
<path d="M6681 1789 c-263 -51 -458 -227 -506 -456 -39 -185 14 -362 150 -498
78 -78 165 -129 285 -167 65 -20 96 -23 225 -23 171 0 253 18 373 80 111 57
102 32 102 279 l0 216 -70 0 -70 0 0 -194 0 -193 -57 -26 c-80 -35 -124 -46
-223 -53 -242 -17 -458 94 -547 281 -105 222 -9 479 222 590 204 98 483 76
633 -50 l31 -26 43 40 43 41 -35 30 c-55 47 -187 108 -272 125 -83 16 -254 18
-327 4z"/>
<path d="M2010 1220 l0 -570 70 0 70 0 0 265 0 265 395 0 395 0 0 -265 0 -265
70 0 70 0 0 570 0 570 -70 0 -70 0 0 -255 0 -255 -395 0 -395 0 0 255 0 255
-70 0 -70 0 0 -570z"/>
<path d="M3715 1498 c-83 -161 -214 -418 -292 -570 l-142 -278 72 0 72 0 78
150 79 150 351 0 352 0 76 -148 75 -147 72 -3 c40 -2 72 1 72 5 -1 4 -130 260
-288 568 l-287 560 -70 3 -71 3 -149 -293z m514 -440 c1 -5 -134 -8 -299 -8
l-300 0 151 302 151 303 149 -295 c81 -162 148 -298 148 -302z"/>
<path d="M4800 1220 l0 -570 70 0 70 0 0 455 0 456 405 -456 405 -455 60 0 60
0 0 570 0 570 -70 0 -70 0 -2 -458 -3 -458 -405 457 -405 458 -57 0 -58 1 0
-570z"/>
<path d="M7690 1220 l0 -570 450 0 450 0 0 50 0 50 -380 0 -380 0 0 215 0 215
325 0 325 0 0 50 0 50 -325 0 -325 0 0 205 0 205 365 0 365 0 0 50 0 50 -435
0 -435 0 0 -570z"/>
</g>
</svg>
